<?xml version="1.0"?>
    
<!--********* Copyright (c) 2024 Pareto Softare, LLC DBA Simplemaps.com ***************************************
************* Free for Commercial Use, full terms at  https://simplemaps.com/resources/svg-license ************
************* Attribution is appreciated! https://simplemaps.com *******************************************-->

<svg baseprofile="tiny" fill="#6f9c76" height="332" stroke="#ffffff" stroke-linecap="round" stroke-linejoin="round" stroke-width=".5" version="1.2" viewbox="0 0 1000 332" width="1000" xmlns="http://www.w3.org/2000/svg">
 <g id="features">
 
  <path d="M79.4 53.8l-0.1 0.7 0 0.1 0 0.4-0.5 2.1-0.1 0.2-0.2 0.2-1.1 0.7-0.5 0.4-5.1 5.8 0 0.1-0.1 0.2-0.1 0.5-0.2 0.6-0.3 0.4-1.1-1.4-1-2-0.8-2.2-0.2-2-0.2-0.9 0.4-0.7 0.4-1 0.2-1.2-0.1-0.4-0.1-0.8 0-0.4 0.3-0.5 0.4-0.4 0.3-0.4-0.1-0.6-0.3-1.1-0.1-0.8 0.3-1.9 0.1-1 0.1-0.6 0.3-0.4 0.7-0.2 0.4 0.3 0.1 0.1 0.2 0.3 0.4 0.2 0.7 0 0-0.1 0.7-0.4 0.4 0 0.6 0 0.5 0.2 0.3 0.3 1.7 5.2 0.5 0.9 0.9 0.8 1.4 0.7z" id="MY09" name="Perlis">
  </path>
  <path d="M71.1 66.2l0.3-0.4 0.2-0.6 0.1-0.5 0.1-0.2 0-0.1 5.1-5.8 0.5-0.4 1.1-0.7 0.2-0.2 0.1-0.2 0.5-2.1 0-0.4 0-0.1 0.1-0.7 0.4 0.2 1.1 0.3 0.7 0.1 1.2-0.2 0.7 0.2 1.5 1.1 0.8 0.4 2.9 0.8 1.6 0.7 0.8 0.2 0.8-0.1 3-2.2 0.8 0 0.1 0.3-0.1 1.1 0.2 0.4 0.4 0.2 0.4 0.1 0.5 0 0.5 0.1 1.1 0.6 0.4 0.9 0.1 2.2 0.1 0.5 0.2 0.6 0.6 0.9 0.1 0.4-0.1 0.4-0.2 0.4 0 0.1-0.1 0.4 0.1 1.3 0.1 0.4 0.4 0.7 0.2 0 0.2-0.3 0.6-0.2 0.6 0.1 1.9 0.4 0.9-0.2 1.2-1.3 0.9-0.2 1.5 1.2 0.8 0.3 2.1-0.5 0.6 0.2 0.3 0.6 0.1 1-0.1 1.1-0.4 0.4-0.6 0.3-0.6 0.8-0.1 1 0.8 0.7 0.8 0.7 0.4 0.9-0.3 1.8-0.1 2.7-0.3 1.5-0.1 0.9-0.3 0.8-0.9 0.4-0.9 0.2-0.8 0.4-1.9 3.9-0.3 0.5-0.1 0.6 0.1 0.5 0.2 0.4-0.3 0-0.2 0-0.1 0.1-0.1 0.1-0.1 0.1 0.2 0.8 0.1 0.1 0.1 0.2 0.2 0.3 0.1 0.1 0.4 0.2 0.1 0.1 0.1 0.1 0.1 0.2-0.1 0.2-0.6 2.7-0.1 0.2-0.1 0.1-0.6 0.4-0.2 0.3-0.4 0.4-0.4 0.4-0.1 0.1 0 0.2 0.1 0.4 0 0.2 0.2 0.1 0.1 0.1 0.2 0 0.1 0.1 0.1 0.1 0.1 0.1 0 0.2 0 0.3-0.1 0.8 0 0.4 0 0.1-0.1 0.6-0.3 0.7-0.3 0.5-0.6 0.6-0.3 0.1-0.3 0.1-0.2-0.2-0.1-0.1-0.2 0.1-0.2 0.2-0.3 0.5-0.2 0.3-0.3 0.6-0.2 1.8 0 0.4 0 0.4 0 0.4-0.3 1.3-0.1 0.3-0.2 0.3-0.1 0.3-0.6 0.6-0.3 0.2-0.5 0.2-1.2 0.3-1.6 0.2-0.3 0.3-0.5 0.8-0.1 0.5 0 0.2-0.2 0.2-0.2 0.2-1.1 0.8-0.2 0.2-0.1 0.2-0.4 0.7-0.2 0.8 0 0.1-0.1 0-0.1 0.3-3.3 2.9-0.2 0.4-0.2 0.7-0.1 0.1-0.1 0.1-0.7 0.6-0.7 0.8-0.1 0.1-0.1 0.1-0.2 0-0.3 0.1-0.4-0.1-0.3-0.2-0.5-0.3-0.5-0.2-0.2-0.1-0.2-0.3-0.4-1.3 1.4 0.2 0.6 0 0.1 0 0.2-0.1 0.1-0.1 0.1-0.2 0.1-0.2 0-0.2-0.8-5.4-0.8-9.6 0.1-2.8 0.1-0.4 0.2-0.5-0.8-0.4-0.8-0.1-6.7-0.4-0.2-0.7-0.3-4 0.4 0.2 0.6 0.1 0.5 0 0.4-0.3 0.1-0.4-0.4-0.3-0.4-0.2-0.2-0.2 0.5-5.5-1.3-9.4-0.3-0.8-0.7-0.9-0.6-1-0.8-2.1-1.7-3-0.5-1.9-0.7-0.7-1.6-1 0-0.1z m-19.1 0.9l0.6-1.5 1.1-0.4 0.6-0.6 0.2 0.8-0.4 0.4-0.3 0.5 0 0.6-0.1 0.3 0 0.7 0.3 0.8-0.2 0.7-0.4 0.7-0.5 0.2-0.8-0.6-0.2-0.8-0.4-0.1-0.4-0.9 0.9-0.8z m5.3-5.8l0.5 0.8 0.1 0.4 0.1 0.4-0.5 0.2-0.6 0.2-0.4 0.5-0.6 0.3-0.2 0.7-0.8-0.5-0.2-1.1-0.9 0-0.8 0.3-0.8 0.9-0.6 0.7-0.8 0-0.5 0.6-0.6 0.3-0.4 0.1-0.6-2.2 0.3-0.8-0.1-1.2-0.8-0.3-1.2-0.2-0.8 0-0.4-0.6-0.2-0.8 0-2 1.1 0.4 0.9-0.4 1.5 0.1 0.7 0.5 1.6 0.2 0.7-0.2 0.7-0.6 0.6-0.8 0.4-0.1 0.7 0-0.2-0.4-0.1-0.3 0.5 0 0.4 0.2 0.3 1 0.4 0.7 0.5 0.5 1 0.4-0.1 0.4 0.4 0.2 0.4 0.3-0.2 0.6-0.4 0.6z" id="MY02" name="Kedah">
  </path>
  <path d="M179.6 85.1l-0.1 0.1-1.7 2.1-3.6 3.3-1.6 1.7-0.2 0.6 0.6 2.6 0.1 0.3 0.2 0.5 0 0.2-0.1 0.8 0 2.5 0 0.2-0.1 0.1-0.4 0.3 0 0.4 0.3 2.8 0 0.7-0.1 0.5-0.1 0-0.1 0.2 0.1 0.2 0.8 1 1 0.8 0.2 0.2 0.1 0.5-0.2 1.1-0.6 1.2 0 0.2-0.2 1-0.1 2.7 0.1 0.7 0.1 0.2-0.1 0.2 0 0.3-0.3 0.8 0 0.2 0.1 0.2 0.3 0.1 0.6 0.2 0.2 0 0.2 0.2 0.1 0.1 0.2 0 0.2 0 0.2 0.1 0.2 0.1 0.2 0.2 0.3 0.2 0.2 0 0.6 0.8 0.2 0.1 0.2 0.2 0.2 0 0.1 0.1 0.2 0.1 0.4 0.5 0.4 0.3 0.1 0.1-0.1 0.2-0.2 0.3-0.1 0.1 0 0.2-0.1 0.1 0 0.2-0.2 0-0.3 0.1-0.1 0.1-0.1 0.1 0 0.3 0.5 2.2 0 0.3-0.1 0.1-0.1 0.1-0.2 0.1-0.1 0-0.1 0.2 0 0.1 0 0.1 0 0.1 0 0.2 0.1 0.4 0.4 1.3 0.1 0.7-0.1 0.4 0 0.9 0 0.2 0.2 0.2 0.5 0.2 0.3 0 0.1-0.1 0.1-0.1 0.1-0.1 0.2 0 0.1 0 0.2 0 1.1 0.5 2.3 1.7 0.2 0 0.4 0.1 0.1 0.2 0.1 0.2 0.1 0.7 0.1 0.4 0.2 0.3 0.2 0.2 0.1 0.2 0.4 1 0 0.3-0.2 0.7-0.9 0-0.4-0.2-0.5-0.3-0.1-0.1-0.2 0-0.2 0.1-0.2 0.2-0.1 0.2 0 0.2 0 0.2 0 0.2-0.1 0.1-0.1 0.3-0.1 0.2 0 0.1 0 0.2 0 0.1 0.2 0.3 0.1 0.1 0.1 0.7 0 0.4 0 0.2-0.1 0.1-0.1 0.1-0.2 0.1-0.6-0.1-0.7-0.1-0.2-0.1-0.2-0.1 0-0.1-0.2-0.1-0.1-0.1-0.1 0-0.2 0-0.2 0.3-0.2 0.3-0.1 0.1-0.1 0.1-0.2 0.2-0.1 0.1-0.3 0.2-0.3 0.2-0.2 0.1-0.2 0-0.4-0.1-0.3-0.1-0.1-0.1-0.5-0.3-0.8-0.5-0.2-0.2-0.2-0.4-0.1-0.1-0.2 0-0.3-0.1-0.4 0.1-0.3-0.1-0.2 0-0.3-0.1-0.2-0.1-0.4 0-0.6 0.2-0.4 0.1-0.4 0.4 0 0.2 0 0.1 0.1 0.2 0 0.1 0 0.2-0.1 0.1-0.5 0.7-0.5 0.4 0 0.1-0.3 0.6-0.2 0.1-0.4 0-0.7-0.1-0.4-0.1-0.2-0.1-0.9-0.6-0.3 0-0.3 0.1-1 0.2-0.3 0.2-0.2 0.1-0.5 0.6-0.9-0.1-0.2-0.1-0.2-0.1-0.1-0.2-0.1-0.2-0.1-0.1-0.1-0.1-0.1-0.1-0.2-0.1-0.1 0-0.1-0.1-0.1-0.2 0-0.2 0-0.1 0-0.2-0.1-0.2-0.1-0.1-0.3-0.3-1.6-1.3-0.1-0.1-0.1-0.1 0-0.2 0-0.4-0.1-0.1-0.2-0.8-0.1-0.1-0.1-0.1-0.4 0.1-2.6 1.1-0.4 0-0.3-0.2-0.3-0.2-0.1-0.1-0.1 0-0.2 0-0.2 0-0.1-0.1-0.4-0.6-0.1-0.1-0.1-0.1-0.1 0.1-0.2 0.1-0.2 0.2-0.2 0.1-0.3 0-0.2 0-0.1-0.2-0.2-0.2-0.1 0-0.2 0.1-0.3 0.4-0.1 0.2-0.1 0.2 0.1 0.2 0 0.2 0 0.4 0 0.3-0.5 2.1-0.1 0.3-0.1 0.1-0.5 0.5-0.3 0.4-0.1 0.3-0.1 0.1 0 0.2 0 0.5-0.1 0.2-0.2 0-0.3-0.1-0.2-0.1-0.1-0.2 0-0.1-0.3-0.6 0-0.2 0-0.1 0.1-0.4 0-0.2 0-0.2 0-0.1-0.1-0.2-0.1-0.1-0.1-0.1-0.8-0.4-0.2-0.2-0.2-0.1-0.2-0.1-0.2 0-0.1-0.1-0.1-0.1 0-0.2 0-0.2-0.1-0.2 0-0.1-0.1-0.2-0.1-0.1-0.1 0-0.2-0.1-0.3 0-0.2-0.1-0.1 0-0.1-0.1-0.1-0.2 0-0.2 0-0.4 0-0.4 0-0.2-0.1-0.1-0.1-0.1-0.1-0.1-0.2 0-0.3-0.1-0.4 0.1-0.2 0.1-0.2 0.1-0.1 0.2-0.2 0.5 0 0.3 0 1.1 0 0.2-0.2 1.1 0.1 1-0.1 0.3-0.1 0.7-0.1 0.1-0.1 0.2-0.2 0.1-0.3 0.1-1 0.3-0.3 0.1-0.4 0.4-0.3 0.3-1.4 0.7-0.4 0.3-0.2 0.2-0.2 0.3-0.2 0.3-0.3 0.2-0.3 0.1-1 0.3-0.3 0-0.2-0.2-0.4-0.2-0.7 0.1-0.5-0.4-0.3-0.4-0.2-0.1-0.7-0.2-0.2-0.1-0.2-0.2-0.1-0.1-0.1-0.1-0.4-0.1-0.6 0-0.5 0.1-0.3 0-0.1 0.1-0.6 0.2-0.2 0.1 0 0.1-0.1 0.2 0 0.2 0 0.2-0.1 0.1-0.3 0-0.6-0.1-0.5-0.4-0.2-0.2-0.7-0.6-0.5-0.2-1.9-0.5-0.4-1.2-0.3-0.7-0.9-1.3 0.6-0.8 0.1-0.1 0.2-0.1 0.1 0 0.2-0.1 0.1 0 0.2 0 0.1 0 0.2 0 0.1 0 0.1-0.2 0.1-0.3 0-0.5-0.1-0.6-0.1-0.1 0-0.2 0-0.2 0.1-0.1 0.2-0.2 0.2 0 0.2-0.1 0.2-0.1 0.1-0.2 0.2-0.5 0.1-0.3 0.1-0.2 0.1-0.1 0.1-0.2 0-0.2-0.1-0.4-0.3-0.8 0-0.1 0-0.2 0.2-0.2 0.3-0.5 0.1-0.1 0.1 0 0.4-0.1 0.1 0 0.4 0 0.2-0.2 0.1-0.2 0.5-1.4 0-0.3 0-0.2-0.3-1.9-0.1-0.3-0.5-0.4-0.4-0.9 0.8-0.5 0.1-0.2 0.1-0.2 0.1-0.4 0-0.4 0-0.2 0.1-0.3 0.2-0.2 0.1-0.2 0.1-0.7 0-0.4 0-0.4 0.1-0.2 0.6-1 0.1-0.3 0-0.3 0-0.2 0-0.2 0-0.2 0.2-0.3 0-0.2 0.1-0.2 0-0.2-0.1-0.4 0-0.2 0.1-0.2 0.1-0.5 0-0.4 0.1-0.7 0.1-0.1 0.1-0.3 0.6-0.9 0.2-0.2 0-0.2 0-0.8 0-0.2 0.3-0.5 0.1-0.2 0-0.5 0.1-0.1 0.1-0.1 0.3 0 0.3 0 0.2 0 0.1-0.1 0.2-0.2 0.1-0.4 0.2-0.2 0.7-0.6 0.2-0.2 0.1-0.3 0-0.2-0.1-0.1 0-0.2 0.2-0.3 0.2-0.2 0.6-0.4 0.3-0.2 0.2-0.2 0-0.1 0.2-0.1 0.1 0 0.3 0.1 0.3 0.4 0.2 0.1 0.1 0 0.4 0.1 0.4 0 0.3 0.2 0.5 0.3 0.1 0 0.2 0 0.3-0.4 0.2-0.1 0.4-0.2 0.2 0 0.2 0 0.2 0 0.2 0.1 0.2 0 0.1 0 0.2-0.1 0.2-0.1 0.5-0.4 0.2-0.1 0.1-0.3 0.1-0.2-0.3-0.7 0.1-1.3 0.1-0.5 0.1-0.2-0.1-0.3-0.2-0.5 0-0.4 0.1-0.4 0.2-0.4 0-0.1 0.1-0.2 0-0.2-0.1-0.3-0.1-0.3-0.2-0.4-0.2-0.2-0.2 0-0.1 0-0.2 0-0.3-0.2-0.1 0-0.1 0-0.2 0-0.2 0.2-0.2 0-0.2 0.1-0.1-0.1-0.4-0.2-0.1-0.1-0.2 0-0.4 0-0.1 0-0.2-0.1 0-0.2 0-0.2 0.3-0.9 0.3-0.6 0.2-0.5 0-0.2 0-0.3-0.1-0.6-0.1-0.2-0.1-0.2-0.4-0.3-0.1-0.1-0.1-0.1-0.1-0.2 0-0.3 0-0.6 0-0.5 0-0.1 0-0.4 0-0.2 0.1-0.3 0.3-0.4 0.3-0.3 0.5-0.4 0.1-0.1 0.2-0.7 0.1-2.4-0.1-0.2 0.8-0.8 0.5-0.1 0.7 0.1 0.3 0.5 0.3 0.6 0.4 0.5 1 0.5 0.8-0.1 0.5-0.6 0.4-1 0.2-0.2 1.4-0.9 0.2-0.4 0.2-0.4 0.2-0.4 0.5-0.3 1.6-1.3 0.3-1.8 0-2 0.7-1.9 1.1-1.4 3.4-2.7 1.3-1.2 0.5-1.5-0.2-3.6 0.3-2.5 1.2 0.9 2.4 1.7 0.6 0.2 1.1-0.3 0.2-0.5-0.4-0.4-0.8 0.3 0.5-0.8 1 0.1 5.4 1.9 1 0.7 2 2 5.5 11 1 1.2 1 0.8z" id="MY03" name="Kelantan">
  </path>
  <path d="M85.2 118.6l0.4 1.3 0.2 0.3 0.2 0.1 0.5 0.2 0.5 0.3 0.3 0.2 0.4 0.1 0.3-0.1 0.2 0 0.1-0.1 0.1-0.1 0.7-0.8 0.7-0.6 0.1-0.1 0.1-0.1 0.2-0.7 0.2-0.4 3.3-2.9 0.1-0.3 0.1 0 0-0.1 0.2-0.8 0.4-0.7 0.1-0.2 0.2-0.2 1.1-0.8 0.2-0.2 0.2-0.2 0-0.2 0.1-0.5 0.5-0.8 0.3-0.3 1.6-0.2 1.2-0.3 0.5-0.2 0.3-0.2 0.6-0.6 0.1-0.3 0.2-0.3 0.1-0.3 0.3-1.3 0-0.4 0-0.4 0-0.4 0.2-1.8 0.3-0.6 0.2-0.3 0.3-0.5 0.2-0.2 0.2-0.1 0.1 0.1 0.2 0.2 0.3-0.1 0.3-0.1 0.6-0.6 0.3-0.5 0.3-0.7 0.1-0.6 0-0.1 0-0.4 0.1-0.8 0-0.3 0-0.2-0.1-0.1-0.1-0.1-0.1-0.1-0.2 0-0.1-0.1-0.2-0.1 0-0.2-0.1-0.4 0-0.2 0.1-0.1 0.4-0.4 0.4-0.4 0.2-0.3 0.6-0.4 0.1-0.1 0.1-0.2 0.6-2.7 0.1-0.2-0.1-0.2-0.1-0.1-0.1-0.1-0.4-0.2-0.1-0.1-0.2-0.3-0.1-0.2-0.1-0.1-0.2-0.8 0.1-0.1 0.1-0.1 0.1-0.1 0.2 0 0.3 0 0.4 0.5 0.5 1.1 0.3 0.4 0.5 0.2 0.9-0.1 0.4 0.1 1.1 0.7 0.8 1 0.7 1.2 0.6 1.2 0.7 0.3 1.3-0.4 2.2-1.3 0.7-0.7 0.6-0.8 0.4-0.9 0.1-1.1 0.6-2.1 1.4-0.7 1.9-0.3 1.7-0.9 1.7-1.1 4.9-1.9 1.6-0.6 1.1-0.3 1 0.3 0.7 1 0.3 0.5 0.2 0.3 0.4 0.3 0.5 0.1 0.4 0.1 0.1 0.4-0.2 0.5 0 0.4 0.9 2.1 0.7 0.8 1 0.2 0.4-0.2 0.1 0 0.1 0.2-0.1 2.4-0.2 0.7-0.1 0.1-0.5 0.4-0.3 0.3-0.3 0.4-0.1 0.3 0 0.2 0 0.4 0 0.1 0 0.5 0 0.6 0 0.3 0.1 0.2 0.1 0.1 0.1 0.1 0.4 0.3 0.1 0.2 0.1 0.2 0.1 0.6 0 0.3 0 0.2-0.2 0.5-0.3 0.6-0.3 0.9 0 0.2 0 0.2 0.2 0.1 0.1 0 0.4 0 0.2 0 0.1 0.1 0.4 0.2 0.1 0.1 0.2-0.1 0.2 0 0.2-0.2 0.2 0 0.1 0 0.1 0 0.3 0.2 0.2 0 0.1 0 0.2 0 0.2 0.2 0.2 0.4 0.1 0.3 0.1 0.3 0 0.2-0.1 0.2 0 0.1-0.2 0.4-0.1 0.4 0 0.4 0.2 0.5 0.1 0.3-0.1 0.2-0.1 0.5-0.1 1.3 0.3 0.7-0.1 0.2-0.1 0.3-0.2 0.1-0.5 0.4-0.2 0.1-0.2 0.1-0.1 0-0.2 0-0.2-0.1-0.2 0-0.2 0-0.2 0-0.4 0.2-0.2 0.1-0.3 0.4-0.2 0-0.1 0-0.5-0.3-0.3-0.2-0.4 0-0.4-0.1-0.1 0-0.2-0.1-0.3-0.4-0.3-0.1-0.1 0-0.2 0.1 0 0.1-0.2 0.2-0.3 0.2-0.6 0.4-0.2 0.2-0.2 0.3 0 0.2 0.1 0.1 0 0.2-0.1 0.3-0.2 0.2-0.7 0.6-0.2 0.2-0.1 0.4-0.2 0.2-0.1 0.1-0.2 0-0.3 0-0.3 0-0.1 0.1-0.1 0.1 0 0.5-0.1 0.2-0.3 0.5 0 0.2 0 0.8 0 0.2-0.2 0.2-0.6 0.9-0.1 0.3-0.1 0.1-0.1 0.7 0 0.4-0.1 0.5-0.1 0.2 0 0.2 0.1 0.4 0 0.2-0.1 0.2 0 0.2-0.2 0.3 0 0.2 0 0.2 0 0.2 0 0.3-0.1 0.3-0.6 1-0.1 0.2 0 0.4 0 0.4-0.1 0.7-0.1 0.2-0.2 0.2-0.1 0.3 0 0.2 0 0.4-0.1 0.4-0.1 0.2-0.1 0.2-0.8 0.5 0.4 0.9 0.5 0.4 0.1 0.3 0.3 1.9 0 0.2 0 0.3-0.5 1.4-0.1 0.2-0.2 0.2-0.4 0-0.1 0-0.4 0.1-0.1 0-0.1 0.1-0.3 0.5-0.2 0.2 0 0.2 0 0.1 0.3 0.8 0.1 0.4 0 0.2-0.1 0.2-0.1 0.1-0.1 0.2-0.1 0.3-0.2 0.5-0.1 0.2-0.2 0.1-0.2 0.1-0.2 0-0.2 0.2-0.1 0.1 0 0.2 0 0.2 0.1 0.1 0.1 0.6 0 0.5-0.1 0.3-0.1 0.2-0.1 0-0.2 0-0.1 0-0.2 0-0.1 0-0.2 0.1-0.1 0-0.2 0.1-0.1 0.1-0.6 0.8 0.9 1.3 0.3 0.7 0.4 1.2-0.6 1.8-0.1 0.8 0 0.3 0.3 1 0 0.1 0.1 0.1 0.5 0.5 0.2 0.4 0 0.3-0.1 0.2-0.1 0-0.2 0.1-0.1 0.1-0.4 0.9-0.1 0.4-0.1 0.2-0.2 0.2-0.1 0.1-0.3 0.3-0.4 0.7 0.6 0.4 0.5 0.7 0.2 0.2 0.2 0.1 0.3-0.1 2.2 0.6 0.5 0.1 0.2 0.1 0.1 0.1 0.1 0.2 0 0.2 0 0.1-0.2 0.3 0 0.1-0.2 0.4-0.1 0.2-0.1 0.1-0.1 0.2 0.1 0.2 0.2 0.2 0.3 0.2 0.2 0.1 0.1 0.5 0.1 1.9 0.3 0.6 0.1 0.1 0.3 0.3 0 0.2 0 0.2-0.1 0.2 0 0.3-0.1 0.5 0 0.2 0.1 0.2 0.2 0.1 0.4 0.2 0.7 0.1 0.1 0.1 0.4 0.1 0.3 0.2 0 0.1 0 0.1-0.2 0.3 0 0.3 0 0.5 0.3 1.2 0.2 0.6 0.2 0.3 0.1 0 0.4-0.2 0.1-0.1 0.2 0.1 0.3 0.2 0.2 0.1 0.4 0.4 1.2 1.6-1 2.8-0.1 0.8 0 0.1 0 0.1 0.5 0.5 0.1 0.4 0.3 3.4 0.2 0.8 0.2 0.2 0.4 0.5 0.1 0.4 0.1 0.3 0 0.5-0.2 2 0 0.4 0.1 0.2 0.2 0.1 0.2 0 0.4 0.2 0.4 0.7-0.8 0.2-0.1 0.1-0.2 0.2-0.2 0.3-1.6 2.1-1 0.9-0.4 0.4-0.4 0.2-0.2 0-0.3 0.1-0.2-0.1-0.1-0.1-0.1 0 0-0.1-0.3-0.5-0.1-0.1-0.2-0.1-0.2-0.1-0.2-0.1-0.1-0.1-0.1-0.1-0.1-0.1-0.1-0.1-0.1-0.1-0.4-0.1-0.1-0.1-0.1-0.1-0.1-0.1-0.2-0.6-0.1-0.1-0.3-0.5-0.1-0.1-0.2 0-0.1-0.1-0.6-0.1-0.3-0.1-0.3-0.1-0.1-0.1-0.2-0.1-0.2-0.2-0.1 0-0.1-0.1-0.1-0.1-0.1-0.1-0.1-0.2-0.1-0.1 0-0.2-0.1-0.2-0.2-0.1-0.5-0.2-0.4-0.1-0.6 0.1-0.3 0.1-0.2 0-0.1 0.1-0.1 0.1-0.1 0.2 0 0.2-0.2 0.3 0 0.1-0.1 0.1 0.1 0.2 0.1 0.1 0.3 0.3 0 0.1 0.3 0.6 0.2 0.9 0.1 0.8-0.5 0.6-1 0.6-0.4 0.1-1.2 0.3-0.7 0-0.2-0.1-0.1 0-0.2-0.1 0-0.1-0.1-0.2-0.2-0.3 0-0.1 0-0.2 0-0.2 0-0.2 0-0.1 0-0.4-0.4-0.3-0.3 0.1-0.7 0.3-0.1 0-0.2-0.1-0.3-0.3-0.2-0.2-0.2-0.1-0.1 0.1-0.4 0.2-0.3 0.1-0.2 0-0.1-0.1-0.3-0.5-0.2-0.2-0.2-0.2-0.1 0-0.1 0.2-0.1 0.1-0.1 0-0.2 0-0.1-0.1 0-0.1 0-0.3-0.1-0.2-0.4-0.3-0.1 0-0.2 0 0 0.2 0 0.2-0.2 0.1-0.5 0.4-0.3-0.1-0.3-0.1-0.2 0-0.1 0-0.4 0.3-0.1 0 0-0.1 0.1-0.3 0-0.1 0-0.2 0-0.1 0.1-0.1 0.2 0 0.4 0.1 0.2 0 0.1-0.1 0-0.2-0.1-0.1-0.2-0.2-0.1-0.1 0-0.1-0.1-0.4 0-0.1-0.1 0-0.2 0-0.1 0.1 0 0.2-0.1 0.1-0.2 0-0.2 0.2-0.1 0.1-0.2 0.3-0.2 0.1-0.1-0.1 0-0.1 0-0.1 0-0.2-0.1-0.3 0.1-0.6-0.1-0.2-0.2 0-0.1 0-0.4 0.1-0.4 0-0.2-0.1-0.1-0.2-0.1-0.2-0.1-0.2-0.2 0-0.2 0-0.1 0-0.2 0.1-0.1 0.1-0.1 0-0.3 0-0.1 0-0.1 0.1-0.1 0.1-0.1 0.1 0 0.2-0.1 0.3 0 0.1-0.2 0.1-0.3 0.1-0.2 0-0.2-0.1-0.1-0.1 0-0.2 0-0.1 0-0.2 0.1-0.3 0.1-0.3 0.2-0.2 0.1-0.1-0.1-0.2-0.2-0.3-1.2-0.7 0-0.1-0.1-0.1 0-0.2 0.1-0.1 0-0.2 0.1-0.1 0-0.2-0.2-0.3-0.1-0.1-0.2 0-0.4 0.1-1.3 0.3-1.7 0.2-0.8 0.2-0.2 0.1 0.1-0.1 0.1-0.3-0.5-0.2-1 0.2-0.5 0.1-0.3 0.2-0.5 0.2-1.1-0.3-1.2-0.6-0.6-0.4-0.6-0.7-0.2-0.7-0.2-0.9 0.1-2.3 0.2-0.8 0.6-0.3 2.9 0.1 0.9-0.1 0.7-0.9 0.8-0.4 1-0.1 0.7 0.1-0.4-1-1.1 0.1-1.1 0.6-0.5 0.3-1.2-0.1-0.2-0.7 0.1-1.1 0-1.2-0.5-0.7-2.4-1.6-0.7-0.7-0.9-0.7-1.1-0.2-1 0.7-0.5-1-0.4-1.5-0.2-1.4 0.3-0.6-0.7-0.2-0.2-0.6-0.1-0.7-0.2-0.7-0.5-0.6-0.4-0.1-0.2-0.2 0.2-1 0.4-1.2 0.2-0.7 0-0.8 0.2-0.7 0.9-0.6 0.2-0.6 0.1-1.3 0.9-3.1 0.6-1.2-0.7 0.3-0.9-0.3-0.7-0.6-0.3-0.9 0.2-0.9 0.4-0.8 0.6-0.5 0.8 0.5 0.3-0.7 0.4-0.5 0.4-0.4 0.4-0.3-1.1-0.2-1 0.3-0.7 0.1-0.3-1.3-0.2-2.3 0.4-0.6 1.4-0.1 0-0.4-0.3 0-0.7-0.3 0.4-0.6-0.1-0.3-0.9-0.4-0.5 0-0.3 0.1-0.2 0-0.3-0.7 0-0.6 0.3-0.8 0-0.5-0.3-0.2-0.4 0-0.4-0.2-0.1-0.6-0.5 0.3-0.5 0.1-1.1 0-0.5-0.2 0.2-0.4 0.5-0.4 0.2 0 0-0.6-0.2-0.2-0.3-0.2-0.5-0.4-0.5-0.3-0.5 0.1-0.5 0.3-0.3 0.4-0.6-0.7-0.2-0.6-0.2-0.6-0.3-0.7-1.1-1.3-0.3-1-0.7-1.6-0.4-0.6-0.3-1.1 0-0.4 0.2 0 0.2 0.1 0.2-0.2 0.5-0.5 0.5-0.4 0.2-0.3 0 0.1 3.5-0.9 0.5 0 0.6 0.2z" id="MY08" name="Perak">
  </path>
  <path d="M78.3 98.4l6.7 0.4 0.8 0.1 0.8 0.4-0.2 0.5-0.1 0.4-0.1 2.8 0.8 9.6 0.8 5.4 0 0.2-0.1 0.2-0.1 0.2-0.1 0.1-0.2 0.1-0.1 0-0.6 0-1.4-0.2-0.6-0.2-0.5 0-3.5 0.9 0-0.1 0.2-0.3 0.4-1.5 0.6-1.4 0.1-1-0.1-0.5-0.4-0.9-0.1-0.3 0.1-0.6 0.4-0.8 0.1-0.5-0.1-0.6-1.1-2.2-1-1.3-0.2-0.6-0.1-1.1 0.3-4-0.3-1.1-1-1.8-0.1-0.3z m-2.1 5.5l0.4 0.7 0.7 0.4 0.5 0.4-0.9 1.6-0.2 1.8-0.2 0.8-1.1 2.2-0.1 0.8-2.5-0.4-1.9 0-0.1 0.1 0 0.1-0.1 0-0.3-0.1-0.2-0.2 0-0.2 0.6-0.4 0.2-0.6-0.3-2.5 0.1-2.1-0.1-0.5-0.2-0.3-0.2-0.3-0.1-0.2 0.1-0.5 0.2-0.3 0-0.3-0.3-0.4 0.6-0.2 0.2 0.3 0.2 0.4 0.4 0.2 0.4-0.1 0.3-0.3 0.2-0.4 0.3-0.2 0.8-0.2 1 0.1 0.9 0.2 0.7 0.6z" id="MY07" name="Pulau Pinang">
  </path>
  <path d="M100.8 178.6l0.2-0.1 0.8-0.2 1.7-0.2 1.3-0.3 0.4-0.1 0.2 0 0.1 0.1 0.2 0.3 0 0.2-0.1 0.1 0 0.2-0.1 0.1 0 0.2 0.1 0.1 0 0.1 1.2 0.7 0.2 0.3 0.1 0.2-0.1 0.1-0.2 0.2-0.1 0.3-0.1 0.3 0 0.2 0 0.1 0 0.2 0.1 0.1 0.2 0.1 0.2 0 0.3-0.1 0.2-0.1 0-0.1 0.1-0.3 0-0.2 0.1-0.1 0.1-0.1 0.1-0.1 0.1 0 0.3 0 0.1 0 0.1-0.1 0.2-0.1 0.1 0 0.2 0 0.2 0 0.1 0.2 0.1 0.2 0.1 0.2 0.2 0.1 0.4 0 0.4-0.1 0.1 0 0.2 0 0.1 0.2-0.1 0.6 0.1 0.3 0 0.2 0 0.1 0 0.1 0.1 0.1 0.2-0.1 0.2-0.3 0.1-0.1 0.2-0.2 0.2 0 0.1-0.1 0-0.2 0.1-0.1 0.2 0 0.1 0 0 0.1 0.1 0.4 0 0.1 0.1 0.1 0.2 0.2 0.1 0.1 0 0.2-0.1 0.1-0.2 0-0.4-0.1-0.2 0-0.1 0.1 0 0.1 0 0.2 0 0.1-0.1 0.3 0 0.1 0.1 0 0.4-0.3 0.1 0 0.2 0 0.3 0.1 0.3 0.1 0.5-0.4 0.2-0.1 0-0.2 0-0.2 0.2 0 0.1 0 0.4 0.3 0.1 0.2 0 0.3 0 0.1 0.1 0.1 0.2 0 0.1 0 0.1-0.1 0.1-0.2 0.1 0 0.2 0.2 0.2 0.2 0.3 0.5 0.1 0.1 0.2 0 0.3-0.1 0.4-0.2 0.1-0.1 0.2 0.1 0.2 0.2 0.3 0.3 0.2 0.1 0.1 0 0.7-0.3 0.3-0.1 0.4 0.3 0 0.4 0 0.1 0 0.2 0 0.2 0 0.2 0 0.1 0.2 0.3 0.1 0.2 0 0.1 0.2 0.1 0.1 0 0.2 0.1 0.7 0 1.2-0.3 0.4-0.1 1-0.6 0.5-0.6-0.1-0.8-0.2-0.9-0.3-0.6 0-0.1-0.3-0.3-0.1-0.1-0.1-0.2 0.1-0.1 0-0.1 0.2-0.3 0-0.2 0.1-0.2 0.1-0.1 0.1-0.1 0.2 0 0.3-0.1 0.6-0.1 0.4 0.1 0.5 0.2 0.2 0.1 0.1 0.2 0 0.2 0.1 0.1 0.1 0.2 0.1 0.1 0.1 0.1 0.1 0.1 0.1 0 0.2 0.2 0.2 0.1 0.1 0.1 0.3 0.1 0.3 0.1 0.6 0.1 0.1 0.1 0.2 0 0.1 0.1 0.3 0.5 0.1 0.1 0.2 0.6 0.1 0.1 0.1 0.1 0.1 0.1 0.4 0.1 0.1 0.1 0.1 0.1 0.1 0.1 0.1 0.1 0.1 0.1 0.2 0.1 0.2 0.1 0.2 0.1 0.1 0.1 0.3 0.5 0 0.1 0.1 0 0.1 0.1 0.2 0.1 0.3-0.1 0.2 0 0.4-0.2 0.4-0.4 1-0.9 1.6-2.1 0.2-0.3 0.2-0.2 0.1-0.1 0.8-0.2 1.3 2 0.6 0.6 0.3 0.1 0.8 0.4 0.2 0.1 0.2 0 0.4 0 0.2 0 0.9 0.4 1.5 0.9 0.3 0.2 0.2 0.5 0.1 0.1 0.2 0.2 0.1 0.2 0 0.1 0 0.2 0.2 0.4 0.7 1 0.4 0.7 0.1 0.4-0.3 1.4-0.1 0.2-0.1 0.1-0.1 0.1-0.1 0.1-0.3 0.1-0.2 0.1-0.1 0.1-0.8 1.5-0.2 0.4 0 0.3 0 0.2 0 0.2 0.1 0.1 0.1 0.2 0.3 0.5 0.1 0.3 0 0.1 0.4 1.5 0 0.3-0.1 0.2-0.4 0.7-0.5 1.3 3 3.9 0.2 0 0.1 0.1 0.5 0.1 1.7 0.9 0.3 0 1.2 0.2 0.3 0 0.2 0.2 0.1 0.1 0.2 0.2 0.2 0.5 0.3 0.5 0.1 0.3 0 0.2 0 0.2-0.1 1.2 0 0.2 0.1 0.2 0.1 0.4 0.3 0.5 0.1 0.2 0.1 0.1 0.1 0.3 0 0.2 0 0.3-0.2 1.5 0 0.6 0.1 0.7 0 0.8 0.2 0.6 0 0.4 0 0.1-0.1 0.2-0.3 0.1-0.3 0.2-0.2 0.1-0.1 0.2-0.1 0.3-0.2 0.6-0.1 0.6 0 0.4 0 0.1-0.1 0.4-0.1 0.1-0.2 0.2-0.8 0.6-0.1 0.1-0.1 0.2-0.1 0.2-0.3 0.9-0.1 1.1-0.2 0.5-0.1 0.2-0.3 0.3-0.5 0.4-0.3 0.1-0.3 0.1-0.2 0-1.7-0.3-1.4-0.1-0.4 0-0.7 0.1-0.1 0.4 0.1 0.8 0.5 2.7 0.1 1.9-1.2 2.5-0.3 0.6-0.1 0.2-0.1 0.9-0.1 0.3-0.2 0.4-0.3 0.6-0.1 1.1-0.4 0-0.6-0.4-0.4-0.5-0.8-0.5-2.6-0.5-0.9-0.4-1.6-0.3-1-0.4-1.8-1.3-1.1-1.3-2.3-3.5-1.4-1.2-2.1-0.5-2-0.2-1.2-0.8 0.8-2-1-0.2 0.1-0.6 2.3-2.8 0.7-0.7 0.6-0.2 0.5-0.5 0-1.2-0.3-2.3-0.3-0.6-1.3-1-0.3-0.6-1-6-0.2-1-0.7-0.7-1.6-1.4-0.2-0.3-0.1-0.4-0.3-0.4-0.9-0.2-0.5-0.2-0.4-0.3-0.1-0.2-0.3-0.8-2.2-2.9-1.5-1.4-0.3-0.4-0.4-1.1-0.9-1.3-0.4-2.1-0.4-1-0.7-1-3.4-2.3-1.1-0.5-0.5-0.3-0.2-0.3-0.8-1.3-1.2-1.5-0.7-0.6-2.2-0.3-0.5-0.5 0-0.8 0.5-1.1 0.8-0.7z m40.6 29.5l-0.4 0-1.1-0.5-0.5-0.6-0.3-0.1-0.1 0-0.1 0.1-0.1 0.1-0.3 0.2-0.6 0.3 0 0.1-0.1 0.1-0.2 0.3-0.6 1.1 0 0.2 0.1 1.6 0.1 0.2 0.2 0.3 0.1 0.1 0.1 0.2 0.1 0.1 0.6 0.3 0.2 0.2 0.1 0.2 0 0.2 0 0.2 0.1 0.1 0 0.1 0.1 0.1 0.1 0.1 0.1 0.3 0 0.2 0 0.1 0 0.1-0.3 0.4-0.1 0.1 0 0.2 0 0.2 0.1 0.3 0.1 0.3 0 0.2 0.2 0.1 0.2 0.1 0.3 0 0.3 0 1.3-0.1 0.3 0 0.1 0.1 0.1 0 0.1 0.2 0.1 0.2 0.1 0 0.1-0.1 0.1-0.2 0.1-0.3 0.1-0.1 0.2-0.1 0.1 0 0.2 0 0.1-0.2 0.1-0.1 0-0.3-0.2-1.8-0.2-0.9-0.1-0.5 0.1-0.3 0.1-0.1 0.2-0.2 0-0.2 0.1-0.7 0.1-0.2 0.3-0.2 0.1-0.2 0-0.2 0-0.3-0.1-0.2-0.2-0.4-0.2-0.5-0.2-0.2-0.1-0.2-0.1-0.1-0.2 0.1-0.5 0.2-0.2 0.1-0.3 0.1z m-1.7 15.4l0.4-0.1 0.6-0.6 0.2-0.3 0.2-0.4 0.9-1.1 0-0.8-0.3-0.5-0.4-0.3-0.1-0.9-0.4 0.3-0.2 0-0.2 0.2-0.7 0.1-0.3 0.1-0.1 0.3 0.1 0.3 0.2 0.2 0 0.3-0.2 0.1 0 0.3 0.2 0.7 0 0.3-0.1 0.1-0.1 0.2-0.2 0.2-0.1 0.4 0 0.3 0.2 0.4 0.2 0.1 0.2 0.1z m-19-8l-0.1 0.5-0.4 0.3-0.7 0.2-0.3-0.5 0.3-0.6 0.9-0.3 0.3 0.4z m3.1-0.2l0 0.3 0 0.6-0.1 1.1-0.6 0.6-0.9 0.3-0.7 0.5-0.3 0.3-0.2 0.2-0.4 0.1-0.1-0.3 0.1-0.5 1.1-2.8 0.7-1 0.8-0.3 0.6 0.3 0 0.6z" id="MY10" name="Selangor">
  </path>
  <path d="M141.6 236.4l0.1-1.1 0.3-0.6 0.2-0.4 0.1-0.3 0.1-0.9 0.1-0.2 0.3-0.6 1.2-2.5-0.1-1.9-0.5-2.7-0.1-0.8 0.1-0.4 0.7-0.1 0.4 0 1.4 0.1 1.7 0.3 0.2 0 0.3-0.1 0.3-0.1 0.5-0.4 0.3-0.3 0.1-0.2 0.2-0.5 0.1-1.1 0.3-0.9 0.1-0.2 0.1-0.2 0.1-0.1 0.8-0.6 0.2-0.2 0.1-0.1 0.1-0.4 0-0.1 0-0.4 0.1-0.6 0.2-0.6 0.1-0.3 0.1-0.2 0.2-0.1 0.3-0.2 0.3-0.1 0.1-0.2 0-0.1 0-0.4-0.2-0.6 0-0.8-0.1-0.7 0-0.6 0.2-1.5 0-0.3 0-0.2-0.1-0.3-0.1-0.1-0.1-0.2-0.3-0.5-0.1-0.4-0.1-0.2 0-0.2 0.1-1.2 0-0.2 0-0.2-0.1-0.3-0.3-0.5-0.2-0.5-0.2-0.2-0.1-0.1-0.2-0.2-0.3 0 0.2-0.2 0.2-0.1 0.1-0.1 0.1-0.1 0-0.1 0.1-0.2 0-0.2 0.1-0.1 0.3 0.1 0.4 0.2 0.9 0.6 0.3 0.3 0.2 0.3 0 0.2 0 0.1 0.1 0.1 0.1 0.1 0.3 0.2 0.2 0.1 0.1 0.1 0.2 0.2 0.2 0 0.2 0.1 0.9 0 0.6 0 0.2 0 0.2 0.1 0.2 0.3 0.1 0.2 0.2 0.5 0.1 0.1 0 0.2 0 0.2 0 0.5 0.1 0.2 0 0.1 0.2 0.1 0.2 0 0.4-0.1 0.5-0.2 0.3-0.2 0.2-0.1 0.1-0.1 0.5-0.1 0.2 0 0.1-0.1 0-0.2 0.3 0.1 0.4 0.1 1.9 0.9 5.8 1.9 0.3 0 3.6 0.6 0.3 0.2 1.8 2 0.1 0.1 1.4 1.8 9.3 6.4 0.2 0.1 0.1 0 0.2 0 0.1-0.1 0.1-0.1 0.1-0.1 0.1 0 0.3 0.5 0.5 2.1-0.2 1.4-2.6 6.9-0.4 1.2-0.1 0.3 0.1 0.2 0.2 0.4 0.1 0.3 0 0.2 0 0.1-0.3 0.4-0.2 0.2-0.1 0.2-0.3 0.7-0.1 0.4-0.1 0.5 0 0.3 0.1 0.2 0.1 0.2 0 0.4 0 0.2-0.3 0.6 0 0.2 0.1 0.6 0.1 0.4 0 0.1 0 0.3-0.1 0.2-0.6 0.7-0.1 0.4-0.2 1.2-6.6-1.6-0.7-0.3-2.6-1.2-1.5 0-0.4 0.1-3.2 1-0.3 0.1-1.9-0.4-1.2-0.5-0.8-0.5-0.2 0-0.1 0-0.1 0.1-0.8 0.8-0.2 0.1-0.2 0.2-1.9 0.5-0.3 0-0.9-0.3-0.2 0.1-0.2 0 0 0.1 0 0.1 0 0.5-0.1 0.1-0.1 0.1-0.1 0.1-0.1 0.1-0.2 0.4-0.1 0.1-0.2 0-0.1-0.1-0.1-0.1-0.2-0.4-0.7 1-0.4 0.3-1.5 0.9 0-0.2-0.8-0.1-0.7-0.3-1.4-0.9-0.8 0.6-1.5 0.1-0.5 0.6-0.4-1.1-0.1-1.5-0.2-1.3-0.8-0.5-0.3-0.2-0.4-0.3-0.7-0.8-1-2.7-0.4-0.5-0.6-0.2-1.8-0.2z" id="MY05" name="Negeri Sembilan">
  </path>
  <path d="M154 245.9l1.5-0.9 0.4-0.3 0.7-1 0.2 0.4 0.1 0.1 0.1 0.1 0.2 0 0.1-0.1 0.2-0.4 0.1-0.1 0.1-0.1 0.1-0.1 0.1-0.1 0-0.5 0-0.1 0-0.1 0.2 0 0.2-0.1 0.9 0.3 0.3 0 1.9-0.5 0.2-0.2 0.2-0.1 0.8-0.8 0.1-0.1 0.1 0 0.2 0 0.8 0.5 1.2 0.5 1.9 0.4 0.3-0.1 3.2-1 0.4-0.1 1.5 0 2.6 1.2 0.7 0.3 6.6 1.6-0.9 0.7-1.1 0.4-0.4 0.3-0.9 1.2-0.2 0.4-0.1 0.3 0 0.2 0.1 0.5 0 0.2-0.1 0.3-0.8 2.4-0.1 0.5-0.1 0.2 0.1 0.2 0 0.4 0.1 0.2-0.1 0.3 0 0.2-0.1 0.1-0.8 0.7-0.1 0.2 0.1 0.2 0.1 0.2 0.1 0.3 0.1 0.1 0.1 0.1 0.3 0.1 0.8 0.3 0.2 0.2 0.2 0 0.3 0 0.2 0.1 0.1 0.1 0.1 0.3 0 0.4-0.1 0.9-0.1 0.4-0.1 0.2-0.2 0-0.5-0.1-0.5 0.3-0.8 1.2-6.5-2.6-7.4-3.1-1.6-0.9-1.2-1-3.5-3.9-0.5-0.2-1-0.2-1-0.5-0.5-0.8 0.1-0.6z" id="MY04" name="Melaka">
  </path>
  <path d="M182.2 244.5l0.2-1.2 0.1-0.4 0.6-0.7 0.1-0.2 0-0.3 0-0.1-0.1-0.4-0.1-0.6 0-0.2 0.3-0.6 0-0.2 0-0.4-0.1-0.2-0.1-0.2 0-0.3 0.1-0.5 0.1-0.4 0.3-0.7 0.1-0.2 0.2-0.2 0.3-0.4 0-0.1 0-0.2-0.1-0.3-0.2-0.4-0.1-0.2 0.1-0.3 0.4-1.2 2.6-6.9 0.2-1.4 2 0.7 2.5 1 0.6 0.4 6.6 7.9 1.6 1.3 7.3 3 0.3 0.1 0.1 0 7-2.6 1.9-0.4 0.7 0 0.5 0.3 0.6 0.4 2.6 1 0.3 0.2 0.4 0.4 0.2 0.4 0.1 0.1 6.6 3.9 0.4 0.2 0.2-0.1 0-0.2-0.1-0.2 0-0.1 0.1-0.1 0.1-0.1 0.5-0.7 0-0.1 0-0.2 0.1-0.3-0.1-0.2 0-0.3-0.1-0.2-0.2-0.3-0.2-0.3-0.1-0.1-0.2 0-0.4-0.1-0.1-0.1-0.1-0.1-0.1-0.1 0-0.1 0-0.1 0-0.1 0.1-0.3 0.1-0.1 0.3-0.4 0.1-0.1 0-0.1-0.3-0.6 0-0.2 0.1-0.1 0.1-0.2 0.1-0.1 0.1-0.1 0.1-0.2 0.1-0.1 0.1-0.3 0-0.2 0-0.1-0.1-0.2-0.1-0.1-0.1-0.2-0.1-0.1-0.2-0.1-0.3-0.2-0.1-0.1-0.1-0.1 0-0.2 0.2-0.2 1-0.5 0.1-0.1 0.4-0.7 0.1-0.3 0.6 0.3 0.7 0.1 0.8 0 0.3 0.2 0.7 0.6 0.5 0.2 0.4-0.1 1.1-0.5 0.7 0.3 0.1 0.3-0.1 0.4 0.1 0.4 1.6 1.3 0.6 0.7 1.2 2.6-0.4 1.1-0.1 0.9 0.4 0.8 3.4 4.3 0.4 0.4 1 0.8 0.3 0.3 0.2 0.5 0.1 0.9 0.1 0.5 0.3 0.5 0.8 1 0.1 0.6-0.1 0.4-0.4 0.9-0.1 0.6 0.3 0.9 2.2 2.7 1.2 2.9 0.8 1.2 0.6 1.1 0.3 0.5 0.9 1.1 0.3 0.5 0.4 1.1 0.1 0.9-0.2 2 0.3 0.9 0.5 1 0.6 0.6 0.6-0.5 0.3 0 1.2 2.2 0.5 2.2 0.8 1.2 0.3 0.7 0 1.5 0.3 0.7 0.5 0.6 0.4 0.6-0.2 0.5 0.3 0.6 0.3 1.9 1 2.6 0.4 2.1 0 1.2-0.3 0.5-0.4 0.4 0.2 2-0.3 0.7-1.7 0-0.2 0.2-0.5 0.7-0.2 0.1-2.1-0.1-0.9-0.2-1.9-0.7-0.4-0.3 0-0.5 0-0.9-0.2-0.7-0.6-0.4-0.6-0.5-0.5-0.4-0.2-1.7 1.2-0.8 1.7-0.7 1.1-1.3-0.8-0.2-0.9 0.2-0.7 0.5-1.6 1.1-0.3 0.2-0.2-0.3-0.3-0.9-1.4-3-1.1-1.6-1.1-0.8-0.2 0.6 0.4 1.3 1.8 2.7 0 0.7-0.2 1.3 0.1 0.6 0.2 0.6 0.1 0.7-0.1 0.8-1.7 1.3-2.2-0.5-4-2.1-1.2 0.1-1.9 0.9-0.9 0.3-1.9-0.2-0.7 0.1-0.8 0.4-2.3 3-1.4 1.1-1.7-0.3 0-0.2-0.4-0.5-0.3-0.4-0.2 0.3 0 0.5 0.3 0.7 0 0.4-0.1 0.5-0.8 1.2-0.7 1.6-0.6-0.9-1.6-1.4-0.6-0.9-0.4-0.9-1.5-5-0.9-1.8-1.3-1.5-2-1.2-5.5-2.1-7.8-4.9-1.9-0.9-1-0.3-1.1-0.1-0.7-0.2-0.6-0.5-0.7-1.2-0.9-1-1.1-1-1.3-0.8-1.5-0.7-0.7 0.3-2.3 0.3-0.8 0-1-0.6-0.6-0.9-0.9-1.9-0.8-0.9-3.8-3.1-0.5-0.5-0.3-0.6 0.4-0.1 0-0.2-0.1-0.2 0-0.2-0.6-0.5-0.8-0.7-1.8-1 0.8-1.2 0.5-0.3 0.5 0.1 0.2 0 0.1-0.2 0.1-0.4 0.1-0.9 0-0.4-0.1-0.3-0.1-0.1-0.2-0.1-0.3 0-0.2 0-0.2-0.2-0.8-0.3-0.3-0.1-0.1-0.1-0.1-0.1-0.1-0.3-0.1-0.2-0.1-0.2 0.1-0.2 0.8-0.7 0.1-0.1 0-0.2 0.1-0.3-0.1-0.2 0-0.4-0.1-0.2 0.1-0.2 0.1-0.5 0.8-2.4 0.1-0.3 0-0.2-0.1-0.5 0-0.2 0.1-0.3 0.2-0.4 0.9-1.2 0.4-0.3 1.1-0.4 0.9-0.7z m75.2-16.9l0.1 2.3-0.1 0.6-0.5 0.4-0.9 0.3-0.9 0-0.7-0.2-0.9-1-0.4-0.5 0-0.4 0.1-0.3-0.3-0.8 0.1-0.4 0.2-0.2 0.6-0.3 0.3-0.3 0.4-0.7 0-0.7-0.2-0.7-0.1-0.7 0.1-0.5 0.3-0.5 0.4-0.3 0.5 0.1 0.2 0.2 0.1 0.3 0.1 0.5 0.1 0.4 0.6 0.9 0.3 0.6 0.5 1.9z" id="MY01" name="Johor">
  </path>
  <path d="M125.7 142.8l1.9 0.5 0.5 0.2 0.7 0.6 0.2 0.2 0.5 0.4 0.6 0.1 0.3 0 0.1-0.1 0-0.2 0-0.2 0.1-0.2 0-0.1 0.2-0.1 0.6-0.2 0.1-0.1 0.3 0 0.5-0.1 0.6 0 0.4 0.1 0.1 0.1 0.1 0.1 0.2 0.2 0.2 0.1 0.7 0.2 0.2 0.1 0.3 0.4 0.5 0.4 0.7-0.1 0.4 0.2 0.2 0.2 0.3 0 1-0.3 0.3-0.1 0.3-0.2 0.2-0.3 0.2-0.3 0.2-0.2 0.4-0.3 1.4-0.7 0.3-0.3 0.4-0.4 0.3-0.1 1-0.3 0.3-0.1 0.2-0.1 0.1-0.2 0.1-0.1 0.1-0.7 0.1-0.3-0.1-1 0.2-1.1 0-0.2 0-1.1 0-0.3 0.2-0.5 0.1-0.2 0.2-0.1 0.2-0.1 0.4-0.1 0.3 0.1 0.2 0 0.1 0.1 0.1 0.1 0.1 0.1 0 0.2 0 0.4 0 0.4 0 0.2 0.1 0.2 0.1 0.1 0.1 0 0.2 0.1 0.3 0 0.2 0.1 0.1 0 0.1 0.1 0.1 0.2 0 0.1 0.1 0.2 0 0.2 0 0.2 0.1 0.1 0.1 0.1 0.2 0 0.2 0.1 0.2 0.1 0.2 0.2 0.8 0.4 0.1 0.1 0.1 0.1 0.1 0.2 0 0.1 0 0.2 0 0.2-0.1 0.4 0 0.1 0 0.2 0.3 0.6 0 0.1 0.1 0.2 0.2 0.1 0.3 0.1 0.2 0 0.1-0.2 0-0.5 0-0.2 0.1-0.1 0.1-0.3 0.3-0.4 0.5-0.5 0.1-0.1 0.1-0.3 0.5-2.1 0-0.3 0-0.4 0-0.2-0.1-0.2 0.1-0.2 0.1-0.2 0.3-0.4 0.2-0.1 0.1 0 0.2 0.2 0.1 0.2 0.2 0 0.3 0 0.2-0.1 0.2-0.2 0.2-0.1 0.1-0.1 0.1 0.1 0.1 0.1 0.4 0.6 0.1 0.1 0.2 0 0.2 0 0.1 0 0.1 0.1 0.3 0.2 0.3 0.2 0.4 0 2.6-1.1 0.4-0.1 0.1 0.1 0.1 0.1 0.2 0.8 0.1 0.1 0 0.4 0 0.2 0.1 0.1 0.1 0.1 1.6 1.3 0.3 0.3 0.1 0.1 0.1 0.2 0 0.2 0 0.1 0 0.2 0.1 0.2 0.1 0.1 0.1 0 0.2 0.1 0.1 0.1 0.1 0.1 0.1 0.1 0.1 0.2 0.1 0.2 0.2 0.1 0.2 0.1 0.9 0.1 0.5-0.6 0.2-0.1 0.3-0.2 1-0.2 0.3-0.1 0.3 0 0.9 0.6 0.2 0.1 0.4 0.1 0.7 0.1 0.4 0 0.2-0.1 0.3-0.6 0-0.1 0.5-0.4 0.5-0.7 0.1-0.1 0-0.2 0-0.1-0.1-0.2 0-0.1 0-0.2 0.4-0.4 0.4-0.1 0.6-0.2 0.4 0 0.2 0.1 0.3 0.1 0.2 0 0.3 0.1 0.4-0.1 0.3 0.1 0.2 0 0.1 0.1 0.2 0.4 0.2 0.2 0.8 0.5 0.5 0.3 0.1 0.1 0.3 0.1 0.4 0.1 0.2 0 0.2-0.1 0.3-0.2 0.3-0.2 0.1-0.1 0.2-0.2 0.1-0.1 0.1-0.1 0.2-0.3 0.2-0.3 0.2 0 0.1 0 0.1 0.1 0.2 0.1 0 0.1 0.2 0.1 0.2 0.1 0.7 0.1 0.6 0.1 0.2-0.1 0.1-0.1 0.1-0.1 0-0.2 0-0.4-0.1-0.7-0.1-0.1-0.2-0.3 0-0.1 0-0.2 0-0.1 0.1-0.2 0.1-0.3 0.1-0.1 0-0.2 0-0.2 0-0.2 0.1-0.2 0.2-0.2 0.2-0.1 0.2 0 0.1 0.1 0.5 0.3 0.4 0.2 0.9 0 1 1.9 0.4 0.5 0.7 0.4 0.8 0.6 0.5 0.3 0.9 0.2 0.3 0.1 0.2 0.1 0.9 0.1 0.8 0 1.3-0.1 0.7 0.2 0.8 0.8 0.5 0.5 0 0.1 0.2 0.4 0 0.3 0.2 0.5 0 0.3-0.1 0.2-0.1 0.1-0.1 0.2-0.1 1 0 0.2-0.1 0.1-0.1 0.2-0.1 0.1-0.1 0-0.5 0.2-0.1 0.1-0.2 0.1-0.1 0.2-0.1 0.4 0.1 0.4 0.1 0.4 0.2 0.8 0.1 0.4 0.2 0.3 0.4 0.2 0.3 0.3 0.3 0.5 0.2 0.2 0.2 0.1 0.6 0 0.1 0 0.2 0.1 0.3 0 0.2-0.1 0.6 0.1 0.1 0 0.2 0.1 0.1 0.1 0.3 0.2 0.1 0.1 0.2 0 0.1-0.1 0-0.1 0.1-0.4 0.1-0.1 0.1-0.1 0.1-0.1 0.1-0.1 0.2 0 0.2 0.1 1.6 1.5 0.1 0.2 0.1 0.2 0 0.5 0.1 0.3 0.1 0.2 0.3 0 0.1 0.6-0.3 0.7-0.3 0.6-0.1 0.4-0.1 0.3 0.3 0.7-0.1 0.2-0.1 0.1-0.3 0-0.1 0-0.4-0.1-0.2 0-0.2 0-0.2 0.1-0.3 0.1-0.4 0.4-0.2 0.2-0.1 0.3-0.3 0.7-0.2 0.3-0.4 0.4-0.2 0.3-0.1 0.2 0 0.2-0.1 0.8-0.4 1.8 0 0.8 0 0.4-0.1 0.6-0.1 0.3 0 0.3-0.6 0.7-0.1 0.2 0 0.2 0.5 0.8 0.2 0.2 0.1 0.1 0.1 0.1 0.1 0.1 0.2 0 0.5 0 2.5-1.1 0.7-0.1 0.2 0.2 0.1 0.1 0.2 0.1 0.6 0.2 1.2 0.3 0.3 0.1 0.2 0.2 0.2 0.2 0.3 0.2 1.6 0.6 0.2 0 0.1 0.1 0.1 0.1 0.1 0.2 0 0.1 0.1 0.2 0.1 0.1 0.1 0 0.1 0.1 0.2 0.3 0.2 0.2 0.2 0.1 0.3 0.2 1.1 0.7 0.3 0.1 0.2 0 0.3-0.2 0.3-0.1 0.1 0.1 0.1 0.2 0 0.3 0.1 0.2 0.1 0.2 0.2 0.2 0.2 0 0.1 0 0.2-0.1 0.2-0.1 0.3 0 0.2 0.1 0.1 0.1 0.1 0.7 0 0.1 0.1 0.2 0.2 0.3 0.3 0.5 0.8 0.7 0.1 0.2 0.1 0.2 0 0.1 0 0.2-0.1 0.3 0.1 0.2 0 0.2 0.5 0.5 0.2 0.3 0.4 1 0.1 0.2 0.2 0.2 0.3 0.3 0.2 0.1 0.1-0.1 0.1-0.2-0.2-1 0.1-0.1 0-0.2 0.1-0.1 0.1-0.1 0.2-0.1 0.2-0.2 0.2-0.4 0.1-0.3 0.1-0.5 0-0.2 0-0.2 0-0.1-0.4-1.3-0.4-0.7 0-0.1-0.1-0.2 0-0.1 0-0.2 0-0.4 0.1-0.3 0-0.2 0-0.2 0-0.4-0.1-0.3-0.1-0.1-0.1-0.1-0.1-0.1-0.3-0.1-0.1-0.1-0.1-0.2-0.1-0.1 0-0.1-0.1-0.4 0-0.2 0-0.2 0.2-1 0.1-0.2 0.1-0.1 0.2-0.2 0.1-0.1 0.1-0.3 0.1-0.1 0.1-0.2 0-0.4 0-0.3-0.1-0.7 0-0.2-0.2-0.9 0-0.2 0.1 0 0.4 0.1 0.2 0.1 0.1 0.1 0.1 0.1 0.1 0.1 0.1 0.1 0.2 0 3.4 0.2 0.6 0.1 0.3 0.1 0.2 0.1-0.1 0.1-0.4 0.1-0.3 0.3-1 1.3-0.4 0.7-0.1 0.8 0.4 1.5 1.7 4.2-0.2 1.2-1-0.6-0.8 1.3-0.5 2.1-0.2 1.5 0.1 1.7-0.2 0.9-0.8 0-0.4 0.6-0.4 0.8-0.2 0.6 0 0.9 0.3 0.8 1.8 3.9 0.1 0.6 0.8 1.1 1.6 1.5 1.1 1.6-0.7 1.4 1.6-0.4-2.2 4.8-0.3 1.9 0.8 5.8 0.3 0.9 0.2 0.9-1 11.2 0.3 1.9 1.5 3.3 2.2 2.9 5.5 5.4-0.1 0.3-0.4 0.7-0.1 0.1-1 0.5-0.2 0.2 0 0.2 0.1 0.1 0.1 0.1 0.3 0.2 0.2 0.1 0.1 0.1 0.1 0.2 0.1 0.1 0.1 0.2 0 0.1 0 0.2-0.1 0.3-0.1 0.1-0.1 0.2-0.1 0.1-0.1 0.1-0.1 0.2-0.1 0.1 0 0.2 0.3 0.6 0 0.1-0.1 0.1-0.3 0.4-0.1 0.1-0.1 0.3 0 0.1 0 0.1 0 0.1 0.1 0.1 0.1 0.1 0.1 0.1 0.4 0.1 0.2 0 0.1 0.1 0.2 0.3 0.2 0.3 0.1 0.2 0 0.3 0.1 0.2-0.1 0.3 0 0.2 0 0.1-0.5 0.7-0.1 0.1-0.1 0.1 0 0.1 0.1 0.2 0 0.2-0.2 0.1-0.4-0.2-6.6-3.9-0.1-0.1-0.2-0.4-0.4-0.4-0.3-0.2-2.6-1-0.6-0.4-0.5-0.3-0.7 0-1.9 0.4-7 2.6-0.1 0-0.3-0.1-7.3-3-1.6-1.3-6.6-7.9-0.6-0.4-2.5-1-2-0.7-0.5-2.1-0.3-0.5-0.1 0-0.1 0.1-0.1 0.1-0.1 0.1-0.2 0-0.1 0-0.2-0.1-9.3-6.4-1.4-1.8-0.1-0.1-1.8-2-0.3-0.2-3.6-0.6-0.3 0-5.8-1.9-1.9-0.9-0.4-0.1-0.3-0.1 0 0.2-0.1 0.1-0.2 0-0.5 0.1-0.1 0.1-0.2 0.1-0.3 0.2-0.5 0.2-0.4 0.1-0.2 0-0.2-0.1 0-0.1-0.1-0.2 0-0.5 0-0.2 0-0.2-0.1-0.1-0.2-0.5-0.1-0.2-0.2-0.3-0.2-0.1-0.2 0-0.6 0-0.9 0-0.2-0.1-0.2 0-0.2-0.2-0.1-0.1-0.2-0.1-0.3-0.2-0.1-0.1-0.1-0.1 0-0.1 0-0.2-0.2-0.3-0.3-0.3-0.9-0.6-0.4-0.2-0.3-0.1-0.1 0.1 0 0.2-0.1 0.2 0 0.1-0.1 0.1-0.1 0.1-0.2 0.1-0.2 0.2-1.2-0.2-0.3 0-1.7-0.9-0.5-0.1-0.1-0.1-0.2 0-3-3.9 0.5-1.3 0.4-0.7 0.1-0.2 0-0.3-0.4-1.5 0-0.1-0.1-0.3-0.3-0.5-0.1-0.2-0.1-0.1 0-0.2 0-0.2 0-0.3 0.2-0.4 0.8-1.5 0.1-0.1 0.2-0.1 0.3-0.1 0.1-0.1 0.1-0.1 0.1-0.1 0.1-0.2 0.3-1.4-0.1-0.4-0.4-0.7-0.7-1-0.2-0.4 0-0.2 0-0.1-0.1-0.2-0.2-0.2-0.1-0.1-0.2-0.5-0.3-0.2-1.5-0.9-0.9-0.4-0.2 0-0.4 0-0.2 0-0.2-0.1-0.8-0.4-0.3-0.1-0.6-0.6-1.3-2-0.4-0.7-0.4-0.2-0.2 0-0.2-0.1-0.1-0.2 0-0.4 0.2-2 0-0.5-0.1-0.3-0.1-0.4-0.4-0.5-0.2-0.2-0.2-0.8-0.3-3.4-0.1-0.4-0.5-0.5 0-0.1 0-0.1 0.1-0.8 1-2.8-1.2-1.6-0.4-0.4-0.2-0.1-0.3-0.2-0.2-0.1-0.1 0.1-0.4 0.2-0.1 0-0.2-0.3-0.2-0.6-0.3-1.2 0-0.5 0-0.3 0.2-0.3 0-0.1 0-0.1-0.3-0.2-0.4-0.1-0.1-0.1-0.7-0.1-0.4-0.2-0.2-0.1-0.1-0.2 0-0.2 0.1-0.5 0-0.3 0.1-0.2 0-0.2 0-0.2-0.3-0.3-0.1-0.1-0.3-0.6-0.1-1.9-0.1-0.5-0.2-0.1-0.3-0.2-0.2-0.2-0.1-0.2 0.1-0.2 0.1-0.1 0.1-0.2 0.2-0.4 0-0.1 0.2-0.3 0-0.1 0-0.2-0.1-0.2-0.1-0.1-0.2-0.1-0.5-0.1-2.2-0.6-0.3 0.1-0.2-0.1-0.2-0.2-0.5-0.7-0.6-0.4 0.4-0.7 0.3-0.3 0.1-0.1 0.2-0.2 0.1-0.2 0.1-0.4 0.4-0.9 0.1-0.1 0.2-0.1 0.1 0 0.1-0.2 0-0.3-0.2-0.4-0.5-0.5-0.1-0.1 0-0.1-0.3-1 0-0.3 0.1-0.8 0.6-1.8z" id="MY06" name="Pahang">
  </path>
  <path d="M185.1 135.6l0.2-0.7 0-0.3-0.4-1-0.1-0.2-0.2-0.2-0.2-0.3-0.1-0.4-0.1-0.7-0.1-0.2-0.1-0.2-0.4-0.1-0.2 0-2.3-1.7-1.1-0.5-0.2 0-0.1 0-0.2 0-0.1 0.1-0.1 0.1-0.1 0.1-0.3 0-0.5-0.2-0.2-0.2 0-0.2 0-0.9 0.1-0.4-0.1-0.7-0.4-1.3-0.1-0.4 0-0.2 0-0.1 0-0.1 0-0.1 0.1-0.2 0.1 0 0.2-0.1 0.1-0.1 0.1-0.1 0-0.3-0.5-2.2 0-0.3 0.1-0.1 0.1-0.1 0.3-0.1 0.2 0 0-0.2 0.1-0.1 0-0.2 0.1-0.1 0.2-0.3 0.1-0.2-0.1-0.1-0.4-0.3-0.4-0.5-0.2-0.1-0.1-0.1-0.2 0-0.2-0.2-0.2-0.1-0.6-0.8-0.2 0-0.3-0.2-0.2-0.2-0.2-0.1-0.2-0.1-0.2 0-0.2 0-0.1-0.1-0.2-0.2-0.2 0-0.6-0.2-0.3-0.1-0.1-0.2 0-0.2 0.3-0.8 0-0.3 0.1-0.2-0.1-0.2-0.1-0.7 0.1-2.7 0.2-1 0-0.2 0.6-1.2 0.2-1.1-0.1-0.5-0.2-0.2-1-0.8-0.8-1-0.1-0.2 0.1-0.2 0.1 0 0.1-0.5 0-0.7-0.3-2.8 0-0.4 0.4-0.3 0.1-0.1 0-0.2 0-2.5 0.1-0.8 0-0.2-0.2-0.5-0.1-0.3-0.6-2.6 0.2-0.6 1.6-1.7 3.6-3.3 1.7-2.1 0.1-0.1 0.4 0.3 2.4 1.5 1.1 0.9 0.9 1.1 0.6 1.5 0.5 0.7 1.2 0.6 8.3 6.6 2 0.9 1.9 0.4 0.8 0.5 2.4 2.2 4.3 4.8 4.7 7.5 1.6 3.9 4.6 7.7 2.7 5 0.3 0.9 0.2 0.3 0.8 1 0.2 0.4 0.1 0.6-0.4 1.3 0.1 1.1 0.4 1.9 0.8 7 0 1.1-0.5 0.9-0.3 0.9 0.6 2.1-0.1 0.7 1.5 4.3 0.1 1.4-0.1 0.5-0.7 1.6-0.3 0.6-0.3 0.2-0.7 0.8-0.2 0.4 0.1 0.4 0.3 1.2-0.3 0.5-0.3 0.1-0.2-0.1-0.3-0.1-0.6-0.1-3.4-0.2-0.2 0-0.1-0.1-0.1-0.1-0.1-0.1-0.1-0.1-0.2-0.1-0.4-0.1-0.1 0 0 0.2 0.2 0.9 0 0.2 0.1 0.7 0 0.3 0 0.4-0.1 0.2-0.1 0.1-0.1 0.3-0.1 0.1-0.2 0.2-0.1 0.1-0.1 0.2-0.2 1 0 0.2 0 0.2 0.1 0.4 0 0.1 0.1 0.1 0.1 0.2 0.1 0.1 0.3 0.1 0.1 0.1 0.1 0.1 0.1 0.1 0.1 0.3 0 0.4 0 0.2 0 0.2-0.1 0.3 0 0.4 0 0.2 0 0.1 0.1 0.2 0 0.1 0.4 0.7 0.4 1.3 0 0.1 0 0.2 0 0.2-0.1 0.5-0.1 0.3-0.2 0.4-0.2 0.2-0.2 0.1-0.1 0.1-0.1 0.1 0 0.2-0.1 0.1 0.2 1-0.1 0.2-0.1 0.1-0.2-0.1-0.3-0.3-0.2-0.2-0.1-0.2-0.4-1-0.2-0.3-0.5-0.5 0-0.2-0.1-0.2 0.1-0.3 0-0.2 0-0.1-0.1-0.2-0.1-0.2-0.8-0.7-0.3-0.5-0.2-0.3-0.1-0.2 0-0.1-0.1-0.7-0.1-0.1-0.2-0.1-0.3 0-0.2 0.1-0.2 0.1-0.1 0-0.2 0-0.2-0.2-0.1-0.2-0.1-0.2 0-0.3-0.1-0.2-0.1-0.1-0.3 0.1-0.3 0.2-0.2 0-0.3-0.1-1.1-0.7-0.3-0.2-0.2-0.1-0.2-0.2-0.2-0.3-0.1-0.1-0.1 0-0.1-0.1-0.1-0.2 0-0.1-0.1-0.2-0.1-0.1-0.1-0.1-0.2 0-1.6-0.6-0.3-0.2-0.2-0.2-0.2-0.2-0.3-0.1-1.2-0.3-0.6-0.2-0.2-0.1-0.1-0.1-0.2-0.2-0.7 0.1-2.5 1.1-0.5 0-0.2 0-0.1-0.1-0.1-0.1-0.1-0.1-0.2-0.2-0.5-0.8 0-0.2 0.1-0.2 0.6-0.7 0-0.3 0.1-0.3 0.1-0.6 0-0.4 0-0.8 0.4-1.8 0.1-0.8 0-0.2 0.1-0.2 0.2-0.3 0.4-0.4 0.2-0.3 0.3-0.7 0.1-0.3 0.2-0.2 0.4-0.4 0.3-0.1 0.2-0.1 0.2 0 0.2 0 0.4 0.1 0.1 0 0.3 0 0.1-0.1 0.1-0.2-0.3-0.7 0.1-0.3 0.1-0.4 0.3-0.6 0.3-0.7-0.1-0.6-0.3 0-0.1-0.2-0.1-0.3 0-0.5-0.1-0.2-0.1-0.2-1.6-1.5-0.2-0.1-0.2 0-0.1 0.1-0.1 0.1-0.1 0.1-0.1 0.1-0.1 0.4 0 0.1-0.1 0.1-0.2 0-0.1-0.1-0.3-0.2-0.1-0.1-0.2-0.1-0.1 0-0.6-0.1-0.2 0.1-0.3 0-0.2-0.1-0.1 0-0.6 0-0.2-0.1-0.2-0.2-0.3-0.5-0.3-0.3-0.4-0.2-0.2-0.3-0.1-0.4-0.2-0.8-0.1-0.4-0.1-0.4 0.1-0.4 0.1-0.2 0.2-0.1 0.1-0.1 0.5-0.2 0.1 0 0.1-0.1 0.1-0.2 0.1-0.1 0-0.2 0.1-1 0.1-0.2 0.1-0.1 0.1-0.2 0-0.3-0.2-0.5 0-0.3-0.2-0.4 0-0.1-0.5-0.5-0.8-0.8-0.7-0.2-1.3 0.1-0.8 0-0.9-0.1-0.2-0.1-0.3-0.1-0.9-0.2-0.5-0.3-0.8-0.6-0.7-0.4-0.4-0.5-1-1.9z" id="MY11" name="Terengganu">
  </path>

  <path d="M141.4 208.1l0.3-0.1 0.2-0.1 0.5-0.2 0.2-0.1 0.1 0.1 0.1 0.2 0.2 0.2 0.2 0.5 0.2 0.4 0.1 0.2 0 0.3 0 0.2-0.1 0.2-0.3 0.2-0.1 0.2-0.1 0.7 0 0.2-0.2 0.2-0.1 0.1-0.1 0.3 0.1 0.5 0.2 0.9 0.2 1.8 0 0.3-0.1 0.1-0.1 0.2-0.2 0-0.1 0-0.2 0.1-0.1 0.1-0.1 0.3-0.1 0.2-0.1 0.1-0.1 0-0.1-0.2-0.1-0.2-0.1 0-0.1-0.1-0.3 0-1.3 0.1-0.3 0-0.3 0-0.2-0.1-0.2-0.1 0-0.2-0.1-0.3-0.1-0.3 0-0.2 0-0.2 0.1-0.1 0.3-0.4 0-0.1 0-0.1 0-0.2-0.1-0.3-0.1-0.1-0.1-0.1 0-0.1-0.1-0.1 0-0.2 0-0.2-0.1-0.2-0.2-0.2-0.6-0.3-0.1-0.1-0.1-0.2-0.1-0.1-0.2-0.3-0.1-0.2-0.1-1.6 0-0.2 0.6-1.1 0.2-0.3 0.1-0.1 0-0.1 0.6-0.3 0.3-0.2 0.1-0.1 0.1-0.1 0.1 0 0.3 0.1 0.5 0.6 1.1 0.5 0.4 0z" id="MY14" name="Kuala Lumpur">
  </path>
 </g>
 <g id="points">
  <circle class="1.176590816028057|100.62687099273207" cx="90.9" cy="302.2" id="0">
  </circle>
  <circle class="3.7783548330590144|110.44330035742861" cx="545.5" cy="181.6" id="1">
  </circle>
  <circle class="7.030559854347713|118.29644384918585" cx="909.1" cy="30.3" id="2">
  </circle>
 </g>
 <g id="label_points">
  
  <circle class="Perlis" cx="73.4" cy="55.2" id="MY09">
  </circle>
  <circle class="Kedah" cx="93.7" cy="80.9" id="MY02">
  </circle>
  <circle class="Kelantan" cx="156.5" cy="118.5" id="MY03">
  </circle>
  <circle class="Perak" cx="108.6" cy="128.6" id="MY08">
  </circle>
  <circle class="Pulau Pinang" cx="83.1" cy="106.1" id="MY07">
  </circle>
  <circle class="Selangor" cx="131.5" cy="198.2" id="MY10">
  </circle>
  <circle class="Negeri Sembilan" cx="164.6" cy="226.1" id="MY05">
  </circle>
  <circle class="Melaka" cx="170.3" cy="249.2" id="MY04">
  </circle>
  <circle class="Johor" cx="219.2" cy="262.2" id="MY01">
  </circle>
  <circle class="Pahang" cx="174.6" cy="183.5" id="MY06">
  </circle>
  <circle class="Terengganu" cx="196.7" cy="122" id="MY11">
  </circle>
  <circle class="Kuala Lumpur" cx="140.3" cy="210.9" id="MY14">
  </circle>
 </g>
</svg>

 